<svg width="117" height="128" viewBox="0 0 117 128" fill="none" xmlns="http://www.w3.org/2000/svg">
<path fill-rule="evenodd" clip-rule="evenodd" d="M40.2559 8H76.1685V16H82.7761V24H88.7632V32H94.7883V40H100.767V48H104.763V56H109.13V88H104.763V96H94.7883V104H87.6943V112H78.866V120H37.1536V112H28.3252V104H21.1372V96H11.2832V88H7.07153V56H11.2832V48H15.0476V40H21.1372V32H27.1162V24H33.2434V16H40.2559V8Z" fill="white"/>
<path fill-rule="evenodd" clip-rule="evenodd" d="M40.3508 0H56.8508H59.3508H75.8508V8H59.3508H56.8508H40.3508V0ZM108.202 64V72V80V88H102.851V96H94.8508V104H87.8508V112H78.8508V120H64.8508H51.3508H37.3508V112H28.3508V104H21.3508V96H13.3508V88H8V80V72V64V56H11.3508V48H15.3508V40H21.3508V32H27.3508V24H33.3508V16H40.3508V8H32.3508V16H25.3508V24H19.3508V32H13.3508V40H7.35083V48H3.35083V56H0V64V72V80V88H3.35083V96H7.35083V104H14.3508V112H23.3508V120H30.8508V128H51.3508H64.8508H85.3508V120H92.8508V112H101.851V104H108.851V96H112.851V88H116.202V80V72V64V56H112.851V48H108.851V40H102.851V32H96.8508V24H90.8508V16H83.8508V8H75.8508V16H82.8508V24H88.8508V32H94.8508V40H100.851V48H104.851V56H108.202V64Z" fill="#724D50"/>
</svg>
