<svg width="152" height="130" viewBox="0 0 152 130" fill="none" xmlns="http://www.w3.org/2000/svg">
<rect x="52" y="116" width="47" height="8" fill="white"/>
<rect x="60" y="108" width="35" height="8" fill="white"/>
<path fill-rule="evenodd" clip-rule="evenodd" d="M8 12H22V24H46V12H64V24H66V52H96V58H104V74H120V64H128V59H136V69H132V76H128V86H104V108H96H90H52V100H42V97H30V72H21V64H12V60H8V12Z" fill="#DFA46D"/>
<rect x="16" y="48" width="40" height="21" fill="white"/>
<rect x="16" y="48" width="40" height="21" fill="white"/>
<path d="M128 60L131.5 54H139V76H124V65L128 60Z" fill="white"/>
<rect x="12" width="8" height="8" fill="#724D50"/>
<rect x="20" y="8" width="8" height="8" fill="#724D50"/>
<rect x="12" y="8" width="8" height="8" fill="white"/>
<rect x="4" y="8" width="8" height="8" fill="#724D50"/>
<rect x="52" width="8" height="8" fill="#724D50"/>
<rect x="60" y="8" width="8" height="8" fill="#724D50"/>
<rect x="52" y="8" width="8" height="8" fill="white"/>
<rect x="60" y="16" width="8" height="8" fill="#724D50"/>
<rect x="4" y="16" width="8" height="8" fill="#724D50"/>
<rect x="44" y="8" width="8" height="8" fill="#724D50"/>
<rect x="56" y="56" width="8" height="8" fill="#724D50"/>
<rect x="64" y="56" width="8" height="8" fill="#724D50"/>
<rect x="8" y="24" width="8" height="8" fill="#724D50"/>
<rect y="24" width="8" height="8" fill="#724D50"/>
<rect x="64" y="32" width="8" height="8" fill="#724D50"/>
<rect y="32" width="8" height="8" fill="#724D50"/>
<rect x="64" y="40" width="8" height="8" fill="#724D50"/>
<rect y="40" width="8" height="8" fill="#724D50"/>
<rect y="48" width="8" height="8" fill="#724D50"/>
<rect x="64" y="48" width="8" height="8" fill="#724D50"/>
<rect x="64" y="48" width="8" height="8" fill="#724D50"/>
<rect x="80" y="44" width="8" height="8" fill="#724D50"/>
<rect x="72" y="44" width="8" height="8" fill="#724D50"/>
<rect x="88" y="44" width="8" height="8" fill="#724D50"/>
<rect x="96" y="52" width="8" height="8" fill="#724D50"/>
<rect x="104" y="60" width="8" height="8" fill="#724D50"/>
<rect x="21" y="69" width="8" height="8" fill="#724D50"/>
<rect x="29" y="69" width="8" height="8" fill="#724D50"/>
<rect x="51" y="64" width="8" height="8" fill="#724D50"/>
<rect x="104" y="68" width="8" height="8" fill="#724D50"/>
<rect x="112" y="68" width="8" height="8" fill="#724D50"/>
<rect x="120" y="60" width="8" height="8" fill="#724D50"/>
<rect x="128" y="52" width="8" height="8" fill="#724D50"/>
<rect x="136" y="52" width="8" height="8" fill="#724D50"/>
<rect x="132" y="68" width="8" height="8" fill="#724D50"/>
<rect x="136" y="60" width="8" height="8" fill="#724D50"/>
<rect x="124" y="76" width="8" height="8" fill="#724D50"/>
<rect x="112" y="84" width="16" height="8" fill="#724D50"/>
<rect x="106" y="92" width="8" height="8" fill="#724D50"/>
<rect x="71.1111" y="94" width="8.88889" height="8.88889" transform="rotate(-180 71.1111 94)" fill="#724D50"/>
<rect x="71.1111" y="85.1111" width="8.88889" height="8.88889" transform="rotate(-180 71.1111 85.1111)" fill="#724D50"/>
<rect x="80" y="85.1111" width="8.88889" height="8.88889" transform="rotate(-180 80 85.1111)" fill="white"/>
<rect x="80" y="94" width="8.88889" height="8.88889" transform="rotate(-180 80 94)" fill="#724D50"/>
<rect x="17.7778" y="93.7778" width="8.88889" height="8.88889" transform="rotate(-180 17.7778 93.7778)" fill="#724D50"/>
<rect x="17.7778" y="84.8889" width="8.88889" height="8.88889" transform="rotate(-180 17.7778 84.8889)" fill="white"/>
<rect x="8.88895" y="93.7778" width="8.88889" height="8.88889" transform="rotate(-180 8.88895 93.7778)" fill="#724D50"/>
<rect x="8.88895" y="84.8889" width="8.88889" height="8.88889" transform="rotate(-180 8.88895 84.8889)" fill="#724D50"/>
<rect x="24" y="71" width="8" height="13" fill="#724D50"/>
<rect x="24" y="84" width="8" height="8" fill="#724D50"/>
<rect x="28" y="92" width="8" height="8" fill="#724D50"/>
<rect x="104" y="84" width="10" height="8" fill="#724D50"/>
<rect x="100" y="92" width="8" height="8" fill="#724D50"/>
<rect x="100" y="100" width="8" height="8" fill="#724D50"/>
<rect x="100" y="108" width="8" height="8" fill="#724D50"/>
<rect x="92" y="108" width="8" height="8" fill="#724D50"/>
<rect x="92" y="116" width="8" height="8" fill="#724D50"/>
<rect x="76" y="108" width="8" height="8" fill="#724D50"/>
<rect x="68" y="116" width="8" height="8" fill="#724D50"/>
<rect x="52" y="108" width="8" height="8" fill="#724D50"/>
<rect x="44" y="116" width="8" height="8" fill="#724D50"/>
<rect x="44" y="124" width="56" height="6" fill="#724D50"/>
<rect x="68" y="108" width="8" height="8" fill="#724D50"/>
<rect x="36" y="92" width="8" height="8" fill="#724D50"/>
<rect x="44" y="100" width="8" height="8" fill="#724D50"/>
<rect x="36" y="100" width="8" height="8" fill="#724D50"/>
<rect y="48" width="8" height="8" fill="#724D50"/>
<rect x="5" y="56" width="11" height="8" fill="#724D50"/>
<rect x="30" y="16" width="10" height="8" fill="#724D50"/>
<rect x="40" y="16" width="8" height="8" fill="#724D50"/>
<rect x="56.0601" y="24" width="8" height="8" fill="#724D50"/>
<rect x="64" y="24" width="8" height="8" fill="#724D50"/>
<rect x="48" y="32" width="8" height="8" fill="#724D50"/>
<rect x="56" y="32" width="8" height="8" fill="#724D50"/>
<rect x="8" y="32" width="8" height="8" fill="#724D50"/>
<rect x="16" y="32" width="8" height="8" fill="#724D50"/>
<rect x="24" y="48" width="8" height="8" fill="#724D50"/>
<rect x="40" y="48" width="8" height="8" fill="#724D50"/>
<rect x="32" y="40" width="8" height="8" fill="#724D50"/>
<rect x="22" y="16" width="8" height="8" fill="#724D50"/>
<rect x="13" y="64" width="8" height="8" fill="#724D50"/>
</svg>
